<svg xmlns="http://www.w3.org/2000/svg" xmlns:xlink="http://www.w3.org/1999/xlink" width="1000" zoomAndPan="magnify" viewBox="0 0 750 374.999991" height="500" preserveAspectRatio="xMidYMid meet" version="1.0"><defs><g><g id="id1"/></g><clipPath id="id2"><path d="M 550 353 L 600 353 L 600 374.589844 L 550 374.589844 Z M 550 353 " clip-rule="nonzero"/></clipPath><clipPath id="id3"><path d="M 637 347 L 681.960938 347 L 681.960938 374.589844 L 637 374.589844 Z M 637 347 " clip-rule="nonzero"/></clipPath><clipPath id="id4"><path d="M 491 38 L 681.960938 38 L 681.960938 207 L 491 207 Z M 491 38 " clip-rule="nonzero"/></clipPath><clipPath id="id5"><path d="M 454.582031 38 L 507 38 L 507 66 L 454.582031 66 Z M 454.582031 38 " clip-rule="nonzero"/></clipPath><clipPath id="id6"><path d="M 139 239.175781 L 525.550781 239.175781 L 525.550781 372 L 139 372 Z M 139 239.175781 " clip-rule="nonzero"/></clipPath><clipPath id="id7"><path d="M 138 239.175781 L 525.550781 239.175781 L 525.550781 373 L 138 373 Z M 138 239.175781 " clip-rule="nonzero"/></clipPath><clipPath id="id8"><path d="M 190 239.175781 L 426 239.175781 L 426 373.273438 L 190 373.273438 Z M 190 239.175781 " clip-rule="nonzero"/></clipPath><clipPath id="id9"><path d="M 188 239.175781 L 427 239.175781 L 427 373.273438 L 188 373.273438 Z M 188 239.175781 " clip-rule="nonzero"/></clipPath></defs><path stroke-linecap="butt" transform="matrix(0.438025, 0, 0, 0.437502, 405.835494, -16.710837)" fill-opacity="1" fill="rgb(100%, 100%, 100%)" fill-rule="evenodd" stroke-linejoin="miter" d="M 379.822051 407.881549 L 382.854127 390.703068 C 397.04246 399.22088 418.891243 398.73874 435.799527 404.97085 L 457.603721 412.935094 C 483.53689 414.944012 509.782184 416.64936 528.313519 426.060024 L 533.361034 434.140339 C 542.662374 438.631387 546.140343 445.336708 533.54831 451.73846 L 538.417467 455.354513 L 545.489339 473.541917 L 545.489339 512.934566 L 551.544573 527.077349 L 561.648521 599.809108 C 564.020674 608.541205 567.445137 616.237593 560.640801 634.157141 C 566.874393 643.746376 575.872525 653.04097 565.688316 664.460553 C 569.326808 676.915844 580.304707 689.380064 573.767907 701.835356 C 577.647181 710.487096 576.371926 714.746002 578.021732 720.156688 C 581.071644 730.183421 584.60312 740.933364 578.307104 763.8261 L 578.940272 775.87068 C 593.752856 776.227821 593.262373 808.683007 599.023318 836.182862 L 570.23643 834.165015 L 539.425186 840.72748 C 536.972772 841.531048 521.839145 853.236343 528.313519 826.0847 C 520.661986 801.156261 511.592511 766.281444 502.05039 728.103074 C 496.976121 701.719285 490.626597 684.290805 487.237806 646.08565 L 474.770622 626.076827 L 468.715388 604.862653 L 465.683312 588.702024 L 457.603721 578.594934 L 455.579364 560.416459 L 451.539569 539.202285 L 436.388106 576.577088 L 434.372667 617.987584 C 434.06946 628.362529 435.389305 635.478563 433.35603 649.308847 L 427.300796 660.415931 C 438.813767 674.897998 431.964842 689.380064 433.35603 703.853202 L 437.395826 741.228005 C 437.395826 741.228005 435.28229 760.942187 435.505237 770.111781 C 435.737102 780.272442 439.420182 804.870527 439.420182 804.870527 L 442.452258 821.031156 L 441.435621 856.388112 C 418.882326 857.06668 409.652329 865.986276 374.765618 856.388112 C 370.913098 851.647066 372.099175 836.816787 373.757899 821.031156 L 373.936256 794.647366 C 372.4113 805.281239 360.728889 699.058585 360.630793 693.755041 C 360.550532 689.969347 356.689094 638.166049 358.606436 609.916198 C 359.756842 592.943073 354.566641 553.345067 354.566641 553.345067 C 353.52325 528.238057 344.890751 513.970275 354.147501 480.265096 L 347.619619 466.050885 C 347.99417 434.809978 383.781586 391.256637 379.822051 407.881549 Z M 379.822051 407.881549 " stroke="rgb(0%, 0%, 0%)" stroke-width="3" stroke-opacity="1" stroke-miterlimit="4"/><path fill="rgb(100%, 100%, 100%)" d="M 567.890625 356.417969 C 568.265625 357.890625 567.714844 359.011719 568.496094 359.308594 C 574.546875 361.625 572.898438 360.066406 575.082031 361.5 L 588.796875 361.058594 L 597.425781 358.628906 C 597.207031 363.191406 596.984375 364.121094 596.761719 365.917969 L 588.796875 367.464844 C 587.789062 365.664062 582.898438 368.902344 579.726562 370.339844 L 566.453125 373.210938 L 560.257812 373.433594 C 557.070312 373.894531 554.019531 374.285156 553.179688 371.886719 C 552.957031 371.222656 552.980469 370.15625 554.507812 366.582031 C 552.71875 364.492188 561.976562 360.15625 567.890625 356.417969 Z M 567.890625 356.417969 " fill-opacity="1" fill-rule="evenodd"/><g clip-path="url(#id2)"><path stroke-linecap="butt" transform="matrix(0.438025, 0, 0, 0.437502, 405.835494, -16.710837)" fill="none" stroke-linejoin="miter" d="M 369.967804 852.861345 C 370.823919 856.227399 369.566499 858.789885 371.350074 859.468453 C 385.163856 864.763068 381.400514 861.200587 386.385604 864.477355 L 417.696249 863.468432 L 437.395826 857.91489 C 436.896425 868.343406 436.388106 870.468395 435.879787 874.575516 L 417.696249 878.111212 C 415.395438 873.995162 404.230264 881.396909 396.988953 884.682606 L 366.686027 891.245071 L 352.542284 891.753997 C 345.265301 892.807563 338.300444 893.700415 336.383102 888.218301 C 335.874783 886.700452 335.92829 884.262965 339.415178 876.093365 C 335.330793 871.316605 356.466147 861.405943 369.967804 852.861345 Z M 369.967804 852.861345 " stroke="rgb(0%, 0%, 0%)" stroke-width="1" stroke-opacity="1" stroke-miterlimit="4"/></g><path fill="rgb(100%, 100%, 100%)" d="M 640.453125 353.324219 C 639.792969 354.871094 639.71875 356.566406 640.234375 358.40625 L 640.121094 360.835938 C 645.128906 363.785156 647.949219 364.910156 651.296875 366.472656 L 653.066406 366.582031 L 653.617188 365.257812 C 658.09375 367.957031 662.628906 370.671875 666.226562 371.445312 C 670.753906 372.414062 674.3125 372.902344 677.070312 372.992188 C 681.621094 371.996094 681.890625 367.496094 679.503906 364.703125 L 673.640625 357.855469 L 669.214844 353.214844 L 667.667969 350.78125 L 654.722656 350.121094 C 649.902344 351.175781 643.703125 352.003906 640.453125 353.324219 Z M 640.453125 353.324219 " fill-opacity="1" fill-rule="evenodd"/><g clip-path="url(#id3)"><path stroke-linecap="butt" transform="matrix(0.438025, 0, 0, 0.437502, 405.835494, -16.710837)" fill="none" stroke-linejoin="miter" d="M 535.626173 845.789954 C 534.119053 849.325649 533.949614 853.200629 535.126773 857.405964 L 534.868154 862.959506 C 546.300865 869.700542 552.739568 872.271957 560.382183 875.843367 L 564.421979 876.093365 L 565.679398 873.066596 C 575.899278 879.236206 586.252927 885.44153 594.466286 887.209378 C 604.802098 889.423652 612.926278 890.539718 619.222295 890.745074 C 629.611615 888.4683 630.226948 878.18264 624.778129 871.798745 L 611.392405 856.147042 L 601.288457 845.539955 L 597.75698 839.977484 L 568.203156 838.468564 C 557.198503 840.879265 543.045842 842.772112 535.626173 845.789954 Z M 535.626173 845.789954 " stroke="rgb(0%, 0%, 0%)" stroke-width="1" stroke-opacity="1" stroke-miterlimit="4"/></g><path fill="rgb(100%, 100%, 100%)" d="M 502.40625 46.171875 C 502.59375 50.5 501.839844 54.359375 499.089844 57.21875 C 501.257812 58.636719 503.296875 60.589844 505.171875 63.1875 C 506.355469 64.132812 507.570312 64.90625 509.042969 64.402344 C 508.71875 66.792969 510.324219 67.894531 511.699219 69.152344 C 512.449219 70.515625 514.199219 70.925781 514.957031 71.742188 C 517.601562 74.578125 519.3125 77.0625 522.386719 77.59375 C 522.917969 77.683594 524.210938 78.386719 523.976562 77.878906 C 525.464844 79.28125 526.199219 82.941406 528.734375 81.195312 L 531.167969 82.742188 C 531.628906 85.425781 529.90625 89.082031 535.261719 89.59375 C 538.734375 90.863281 541.566406 90.445312 544.695312 92.191406 C 549.261719 94.746094 555.222656 94.703125 559.816406 94.785156 C 560.886719 95.898438 561.898438 97.085938 561.808594 99.648438 C 562.214844 111.761719 563.15625 119.933594 564.796875 129.589844 C 565.285156 131.824219 564.386719 140.199219 566.234375 141.078125 C 567.417969 155.507812 568.148438 149.039062 570.90625 151.6875 C 576.796875 160.414062 587.261719 157.613281 594 158.976562 C 604.789062 165.414062 617.296875 166.785156 628.371094 167.234375 C 630.511719 170.171875 636.492188 173.085938 637.519531 173.328125 C 642.695312 174.535156 636.28125 169.355469 641.019531 168.355469 L 642.117188 162.734375 C 642.945312 143.863281 644.46875 154.347656 643.445312 150.25 L 642.78125 148.8125 L 643.113281 146.933594 L 644.460938 143.617188 C 643.605469 115.5625 644.917969 122.929688 646.765625 144.503906 L 648.3125 152.015625 L 650.414062 159.972656 C 650.125 162.242188 650.597656 163 650.855469 164.171875 L 652.074219 170.027344 L 652.203125 176.15625 C 652.664062 182.96875 654.148438 182.375 655.390625 183.507812 C 655.375 188.734375 655.324219 193.90625 654.730469 197.980469 C 659.414062 198.957031 664.351562 198.941406 669.332031 198.753906 C 669.710938 194.125 670.019531 189.421875 670.105469 184.5 C 670.105469 184.5 677.625 185.828125 677.625 185.273438 C 677.625 184.722656 680.390625 177.207031 680.390625 177.207031 C 676.335938 165.902344 673.488281 155.5 668.222656 143.289062 L 666.675781 140.859375 L 666.898438 137.984375 C 668.359375 136.527344 665.949219 126.9375 664.683594 119.757812 L 664.574219 118.429688 C 666.089844 116.996094 665.226562 113.453125 664.132812 109.703125 L 657.9375 93.570312 C 655.851562 92.511719 661.492188 88.894531 660.300781 87.996094 C 654.789062 83.832031 648.761719 78.289062 639.542969 72.59375 C 639.289062 70.234375 638.578125 76.277344 638.355469 74.015625 C 638.027344 73.902344 626.1875 67.164062 626.1875 67.164062 L 623.867188 58.988281 L 622.207031 67.605469 L 612.472656 74.789062 L 609.265625 74.347656 L 598.867188 66.390625 L 594.664062 66.390625 L 589.023438 64.402344 L 573.203125 61.308594 L 571.453125 64.085938 L 568.335938 63.628906 C 568.335938 63.628906 560.480469 63.191406 560.925781 63.519531 C 561.375 63.851562 558.441406 63.960938 557.273438 63.960938 L 554.175781 60.757812 C 555.347656 60.421875 549.871094 58.175781 547.984375 59.320312 C 547 59.914062 538.207031 57.976562 537.253906 56.890625 C 538.144531 56.703125 526.964844 49.527344 522.761719 49.929688 C 522.816406 49.335938 502.976562 45.664062 502.410156 46.171875 Z M 502.40625 46.171875 " fill-opacity="1" fill-rule="evenodd"/><g clip-path="url(#id4)"><path stroke-linecap="butt" transform="matrix(0.438025, 0, 0, 0.437502, 405.835494, -16.710837)" fill="none" stroke-linejoin="miter" d="M 220.468616 143.731156 C 220.896674 153.623961 219.175525 162.445343 212.897344 168.981023 C 217.846762 172.222077 222.501891 176.68634 226.782469 182.623808 C 229.484583 184.784511 232.258041 186.552359 235.620079 185.400579 C 234.879895 190.864836 238.54514 193.38268 241.684231 196.257665 C 243.396462 199.37372 247.391668 200.311215 249.121735 202.177277 C 255.159134 208.659385 259.065161 214.337927 266.083526 215.552206 C 267.296356 215.757562 270.248171 217.364696 269.713099 216.203988 C 273.110808 219.409329 274.787368 227.775356 280.575066 223.784305 L 286.130899 227.320001 C 287.183208 233.453897 283.250427 241.810996 295.476828 242.980633 C 303.404815 245.882403 309.870272 244.927051 317.013486 248.918101 C 327.438477 254.757356 341.047148 254.659143 351.534565 254.846642 C 353.978061 257.391271 356.28779 260.105542 356.082679 265.962654 C 357.010137 293.650008 359.159344 312.328481 362.90485 334.399794 C 364.019584 339.506909 361.968473 358.649666 366.186626 360.658584 C 368.888741 393.640553 370.556383 378.854916 376.8524 384.908456 C 390.300549 404.854779 414.191525 398.453027 429.574853 401.569082 C 454.206012 416.28329 482.761035 419.417202 508.043199 420.443983 C 512.930192 427.158233 526.583452 433.818912 528.928852 434.372481 C 540.745031 437.131395 526.101887 425.292171 536.919265 423.006469 L 539.425186 410.158323 C 541.315775 367.024621 544.793745 390.988781 542.457263 381.622759 L 540.941225 378.337062 L 541.699244 374.042442 L 544.775909 366.462124 C 542.822895 302.337463 545.8193 319.17666 550.037453 368.488899 L 553.56893 385.658452 L 558.366744 403.845856 C 557.706822 409.033328 558.785884 410.765462 559.374464 413.44402 L 562.156839 426.827877 L 562.451129 440.836732 C 563.503438 456.408079 566.892229 455.050943 569.728112 457.640215 C 569.69244 469.586581 569.576508 481.407947 568.220992 490.720398 C 578.913519 492.952529 590.185708 492.916815 601.555993 492.488246 C 602.421026 481.907944 603.125538 471.158001 603.321731 459.90806 C 603.321731 459.90806 620.488633 462.943758 620.488633 461.675908 C 620.488633 460.416986 626.802485 443.238505 626.802485 443.238505 C 617.545736 417.399356 611.044608 393.622695 599.023318 365.712128 L 595.491841 360.158586 L 596.000159 353.587192 C 599.335443 350.256853 593.833117 328.337325 590.943727 311.926698 L 590.694026 308.890999 C 594.15416 305.614231 592.183311 297.516059 589.686307 288.944676 L 575.542564 252.069871 C 570.780421 249.65024 583.657826 241.382427 580.937875 239.328866 C 568.35476 229.811059 554.594485 217.141483 533.54831 204.123695 C 532.968648 198.730866 531.345595 212.543293 530.837277 207.373678 C 530.088176 207.11475 503.058109 191.713046 503.058109 191.713046 L 497.760894 173.025645 L 493.970798 192.721969 L 471.747464 209.141526 L 464.425892 208.132602 L 440.68652 189.945198 L 431.090891 189.945198 L 418.213485 185.400579 L 382.096108 178.329188 L 378.100902 184.677369 L 370.984441 183.632731 C 370.984441 183.632731 353.050603 182.632737 354.06724 183.382733 C 355.092795 184.141657 348.395474 184.391656 345.729031 184.391656 L 338.657159 177.070266 C 341.33252 176.302413 328.829665 171.168511 324.522334 173.784569 C 322.27503 175.141705 302.200903 170.713157 300.024942 168.231027 C 302.058217 167.802458 276.53527 151.400759 266.939641 152.320397 C 267.064491 150.963261 221.770625 142.570448 220.477534 143.731156 Z M 220.468616 143.731156 " stroke="rgb(0%, 0%, 0%)" stroke-width="3" stroke-opacity="1" stroke-miterlimit="4"/></g><path fill="rgb(100%, 100%, 100%)" d="M 501.1875 45.992188 C 501.265625 49.933594 501.3125 52.335938 497.429688 56.8125 C 493.460938 57.269531 489.496094 57.726562 481.5 60.347656 C 478.128906 61.457031 475.972656 60.839844 471.324219 59.515625 C 468.785156 55.367188 469.113281 51.355469 469.996094 48.28125 C 467.839844 48.125 466.042969 48.308594 463.359375 47.65625 C 460.726562 47.734375 454.644531 44.742188 459.597656 43.078125 L 470.660156 43.703125 L 479.507812 43.078125 C 487.648438 43.4375 491.945312 45.109375 501.1875 45.992188 Z M 501.1875 45.992188 " fill-opacity="1" fill-rule="evenodd"/><g clip-path="url(#id5)"><path stroke-linecap="butt" transform="matrix(0.438025, 0, 0, 0.437502, 456.896043, -2.864765)" fill="none" stroke-linejoin="miter" d="M 101.116287 111.672446 C 101.294644 120.681327 101.401659 126.17237 92.537295 136.404459 C 83.476738 137.449096 74.425099 138.493733 56.170217 144.484773 C 48.474095 147.020474 43.55143 145.609767 32.939164 142.582998 C 27.142548 133.100905 27.891649 123.93131 29.907088 116.904562 C 24.984423 116.547421 20.882202 116.967061 14.755625 115.475998 C 8.74498 115.654568 -5.140145 108.815319 6.167715 105.011767 L 31.423126 106.440331 L 51.622103 105.011767 C 70.206946 105.833191 80.016604 109.6546 101.116287 111.672446 Z M 101.116287 111.672446 " stroke="rgb(0%, 0%, 0%)" stroke-width="2" stroke-opacity="1" stroke-miterlimit="4"/></g><path stroke-linecap="butt" transform="matrix(0.435178, 0.0932755, -0.0924977, 0.438815, 424.261877, -60.655762)" fill-opacity="1" fill="rgb(100%, 100%, 100%)" fill-rule="evenodd" stroke-linejoin="miter" d="M 398.832728 93.507686 C 396.391903 92.370775 395.73032 93.143432 392.180572 93.461785 C 392.613268 93.850509 393.31526 92.001044 389.914529 89.937643 L 390.172719 81.35482 C 386.671643 82.873475 386.051582 78.055865 385.87924 72.261808 C 390.771918 66.352515 401.33177 62.274114 410.374893 61.15305 C 436.068645 57.96149 466.481687 60.291819 495.978659 63.422194 C 506.246456 64.515516 537.617496 88.709818 498.506072 93.979011 L 498.759521 104.082111 L 499.010705 115.948253 C 481.21649 116.481469 469.75557 116.362807 451.671706 115.533301 L 439.417146 117.719773 C 424.824032 120.981952 395.118824 130.892495 397.494721 122.010858 C 400.120038 118.061222 402.156176 113.408954 407.054954 106.59928 C 402.011714 101.707065 402.749319 99.476155 398.832728 93.507686 Z M 398.832728 93.507686 " stroke="rgb(0%, 0%, 0%)" stroke-width="2.94" stroke-opacity="1" stroke-miterlimit="4"/><path stroke-linecap="round" transform="matrix(0.435178, 0.0932755, -0.0924977, 0.438815, 424.261877, -60.655762)" fill-opacity="1" fill="rgb(100%, 100%, 100%)" fill-rule="evenodd" stroke-linejoin="round" d="M 417.070907 137.674047 L 412.404503 149.926748 C 412.219366 152.476414 418.958211 153.901473 419.368925 153.173239 L 419.810315 157.530325 C 420.633574 159.714313 418.029831 159.62684 421.736503 163.129617 C 422.363829 164.518482 421.052982 162.954443 423.002341 163.679515 C 422.192528 164.599404 422.550138 168.351171 423.361856 169.594019 C 425.881127 173.464917 423.592152 172.197809 425.512847 173.970487 C 423.941303 176.458778 425.307978 178.918936 426.04834 180.417301 C 425.2293 187.712852 439.371572 183.807654 444.519833 185.731044 L 446.319038 196.814142 C 446.319038 196.814142 457.479358 202.275478 463.159052 207.121426 C 466.648359 209.094785 469.653096 209.337371 472.281633 209.161421 C 480.316866 208.619572 485.229233 200.14237 493.563333 192.771611 C 494.614846 185.978557 497.024933 178.229085 496.1167 172.520236 L 494.22143 162.294329 L 492.704063 148.525286 C 497.234137 149.440647 495.298782 138.012613 497.482309 133.462543 L 497.57456 112.274411 C 490.560076 107.694386 490.694607 112.339244 480.10129 109.249894 C 458.399484 117.8776 439.886091 118.447962 415.2568 126.647527 L 417.069097 137.66553 Z M 417.070907 137.674047 " stroke="rgb(0%, 0%, 0%)" stroke-width="2.94" stroke-opacity="1" stroke-miterlimit="4"/><path fill="rgb(100%, 100%, 100%)" d="M 655.828125 199.746094 L 668.804688 197.992188 C 670.914062 200.640625 669.019531 206.375 668.882812 209.027344 C 666.914062 213.5625 665.363281 218.824219 661.140625 219.414062 C 658.757812 223.671875 654.890625 221.992188 651.40625 221.84375 C 649.300781 221.367188 650.363281 217.898438 651.730469 218.464844 L 654.1875 218.074219 C 654.8125 216.90625 653.660156 216.804688 653.839844 215.4375 C 651.8125 214.929688 651.746094 213.0625 652.070312 210.796875 C 652.230469 204.347656 654.085938 201.871094 655.828125 199.746094 Z M 655.828125 199.746094 " fill-opacity="1" fill-rule="evenodd"/><g fill="rgb(100%, 100%, 100%)" fill-opacity="1"><g transform="translate(68.05206, 195.253842)"><g><path d="M 11.984375 0 L 11.984375 -88.15625 L 65.375 -88.15625 L 64.046875 -79.234375 L 39.28125 -83.359375 C 34.925781 -83.359375 30.132812 -82.601562 24.90625 -81.09375 L 24.90625 -48.734375 L 54.453125 -48.734375 L 54.453125 -43.671875 L 24.90625 -43.671875 L 24.90625 -4.796875 L 66.171875 -8.921875 L 64.84375 0 Z M 11.984375 0 "/></g></g></g><g fill="rgb(100%, 100%, 100%)" fill-opacity="1"><g transform="translate(136.230621, 195.253842)"><g><path d="M 5.1875 -34.21875 L 37.953125 -34.21875 L 37.953125 -25.828125 L 5.1875 -25.828125 Z M 5.1875 -34.21875 "/></g></g></g><g fill="rgb(100%, 100%, 100%)" fill-opacity="1"><g transform="translate(173.915226, 195.253842)"><g><path d="M 52.59375 1.59375 C 38.832031 1.59375 27.25 -2.128906 17.84375 -9.578125 C 8.4375 -17.035156 3.734375 -27.734375 3.734375 -41.671875 C 3.734375 -49.835938 5.285156 -57.117188 8.390625 -63.515625 C 11.492188 -69.910156 15.578125 -74.925781 20.640625 -78.5625 C 30.847656 -86.019531 42.300781 -89.75 55 -89.75 C 62.363281 -89.75 70.039062 -88.414062 78.03125 -85.75 L 76.703125 -76.703125 C 72.523438 -78.472656 69.285156 -79.800781 66.984375 -80.6875 C 60.316406 -83.082031 53.613281 -84.28125 46.875 -84.28125 C 37.550781 -82.15625 30.378906 -77.539062 25.359375 -70.4375 C 20.347656 -63.332031 17.84375 -54.457031 17.84375 -43.8125 C 17.84375 -30.757812 21.257812 -20.703125 28.09375 -13.640625 C 34.925781 -6.585938 43.9375 -3.0625 55.125 -3.0625 C 66.3125 -3.0625 74.65625 -5.457031 80.15625 -10.25 L 80.15625 -2.921875 C 72.519531 0.0859375 63.332031 1.59375 52.59375 1.59375 Z M 52.59375 1.59375 "/></g></g></g><g fill="rgb(100%, 100%, 100%)" fill-opacity="1"><g transform="translate(251.415093, 195.253842)"><g><path d="M 41.8125 -61.515625 C 45.894531 -61.515625 49.535156 -60.003906 52.734375 -56.984375 C 55.929688 -53.972656 57.53125 -48.78125 57.53125 -41.40625 L 57.53125 0 L 46.34375 0 L 46.34375 -40.078125 C 46.34375 -44.429688 45.5625 -47.691406 44 -49.859375 C 42.445312 -52.035156 39.472656 -53.125 35.078125 -53.125 C 30.691406 -53.125 26.101562 -50.773438 21.3125 -46.078125 L 21.3125 0 L 10.125 0 L 10.125 -90.953125 L 20.90625 -90.953125 L 20.90625 -51.671875 C 27.914062 -58.234375 34.882812 -61.515625 41.8125 -61.515625 Z M 41.8125 -61.515625 "/></g></g></g><g fill="rgb(100%, 100%, 100%)" fill-opacity="1"><g transform="translate(311.737146, 195.253842)"><g><path d="M 37.953125 -14.109375 L 37.953125 -27.828125 C 31.554688 -27.378906 26.316406 -25.957031 22.234375 -23.5625 C 18.148438 -21.164062 16.109375 -18.59375 16.109375 -15.84375 C 16.109375 -13.09375 16.816406 -10.71875 18.234375 -8.71875 C 19.660156 -6.71875 21.484375 -5.320312 23.703125 -4.53125 C 26.628906 -5.0625 29.734375 -6.523438 33.015625 -8.921875 C 36.304688 -11.316406 37.953125 -13.046875 37.953125 -14.109375 Z M 48.875 -17.703125 C 48.875 -11.398438 51.179688 -6.609375 55.796875 -3.328125 L 48.875 1.734375 L 38.078125 -7.984375 C 31.066406 -1.597656 24.585938 1.59375 18.640625 1.59375 C 14.734375 1.59375 11.378906 0.351562 8.578125 -2.125 C 5.785156 -4.613281 4.390625 -7.742188 4.390625 -11.515625 C 4.390625 -15.285156 5.519531 -18.414062 7.78125 -20.90625 C 10.050781 -23.394531 13.050781 -25.300781 16.78125 -26.625 C 23.164062 -29.019531 30.222656 -30.53125 37.953125 -31.15625 L 37.953125 -43.671875 C 37.953125 -51.046875 33.691406 -54.734375 25.171875 -54.734375 C 20.285156 -54.734375 14.515625 -53.664062 7.859375 -51.53125 L 6.65625 -54.859375 C 8.4375 -56.273438 11.519531 -57.78125 15.90625 -59.375 C 20.300781 -60.976562 24.492188 -61.78125 28.484375 -61.78125 C 32.484375 -61.78125 35.835938 -61.25 38.546875 -60.1875 C 41.253906 -59.125 43.25 -57.925781 44.53125 -56.59375 C 45.820312 -55.257812 46.820312 -53.4375 47.53125 -51.125 C 48.25 -48.820312 48.648438 -47.003906 48.734375 -45.671875 C 48.828125 -44.335938 48.875 -42.5625 48.875 -40.34375 Z M 48.875 -17.703125 "/></g></g></g><g fill="rgb(100%, 100%, 100%)" fill-opacity="1"><g transform="translate(364.202683, 195.253842)"><g><path d="M 21.171875 -90.953125 L 21.171875 0 L 9.984375 0 L 9.984375 -90.953125 Z M 21.171875 -90.953125 "/></g></g></g><g fill="rgb(100%, 100%, 100%)" fill-opacity="1"><g transform="translate(388.70431, 195.253842)"><g><path d="M 21.171875 -90.953125 L 21.171875 0 L 9.984375 0 L 9.984375 -90.953125 Z M 21.171875 -90.953125 "/></g></g></g><g fill="rgb(100%, 100%, 100%)" fill-opacity="1"><g transform="translate(413.205937, 195.253842)"><g><path d="M 37.953125 -14.109375 L 37.953125 -27.828125 C 31.554688 -27.378906 26.316406 -25.957031 22.234375 -23.5625 C 18.148438 -21.164062 16.109375 -18.59375 16.109375 -15.84375 C 16.109375 -13.09375 16.816406 -10.71875 18.234375 -8.71875 C 19.660156 -6.71875 21.484375 -5.320312 23.703125 -4.53125 C 26.628906 -5.0625 29.734375 -6.523438 33.015625 -8.921875 C 36.304688 -11.316406 37.953125 -13.046875 37.953125 -14.109375 Z M 48.875 -17.703125 C 48.875 -11.398438 51.179688 -6.609375 55.796875 -3.328125 L 48.875 1.734375 L 38.078125 -7.984375 C 31.066406 -1.597656 24.585938 1.59375 18.640625 1.59375 C 14.734375 1.59375 11.378906 0.351562 8.578125 -2.125 C 5.785156 -4.613281 4.390625 -7.742188 4.390625 -11.515625 C 4.390625 -15.285156 5.519531 -18.414062 7.78125 -20.90625 C 10.050781 -23.394531 13.050781 -25.300781 16.78125 -26.625 C 23.164062 -29.019531 30.222656 -30.53125 37.953125 -31.15625 L 37.953125 -43.671875 C 37.953125 -51.046875 33.691406 -54.734375 25.171875 -54.734375 C 20.285156 -54.734375 14.515625 -53.664062 7.859375 -51.53125 L 6.65625 -54.859375 C 8.4375 -56.273438 11.519531 -57.78125 15.90625 -59.375 C 20.300781 -60.976562 24.492188 -61.78125 28.484375 -61.78125 C 32.484375 -61.78125 35.835938 -61.25 38.546875 -60.1875 C 41.253906 -59.125 43.25 -57.925781 44.53125 -56.59375 C 45.820312 -55.257812 46.820312 -53.4375 47.53125 -51.125 C 48.25 -48.820312 48.648438 -47.003906 48.734375 -45.671875 C 48.828125 -44.335938 48.875 -42.5625 48.875 -40.34375 Z M 48.875 -17.703125 "/></g></g></g><g fill="rgb(100%, 100%, 100%)" fill-opacity="1"><g transform="translate(465.671474, 195.253842)"><g><path d="M 21.578125 -51.671875 C 25.296875 -55.210938 28.550781 -57.78125 31.34375 -59.375 C 34.144531 -60.976562 37.453125 -61.78125 41.265625 -61.78125 C 45.085938 -61.78125 48.617188 -60.269531 51.859375 -57.25 C 55.097656 -54.238281 56.71875 -49.046875 56.71875 -41.671875 L 56.71875 0 L 45.40625 0 L 45.40625 -40.34375 C 45.40625 -44.695312 44.628906 -47.957031 43.078125 -50.125 C 41.523438 -52.300781 38.859375 -53.390625 35.078125 -53.390625 C 31.304688 -53.390625 26.9375 -50.90625 21.96875 -45.9375 L 21.96875 0 L 10.65625 0 L 10.65625 -41.8125 C 10.65625 -47.84375 8.390625 -52.679688 3.859375 -56.328125 L 10.65625 -61.390625 Z M 21.578125 -51.671875 "/></g></g></g><g clip-path="url(#id6)"><path fill="rgb(100%, 100%, 100%)" d="M 327.25 239.28125 C 310.554688 241.542969 266.453125 247.390625 260.945312 255.992188 C 256.898438 262.316406 320.785156 268.105469 289.464844 275.492188 C 250.703125 284.632812 198.507812 289.554688 154.71875 303.8125 C 85.449219 326.367188 281.320312 360.410156 310.851562 370.664062 L 525.449219 371.386719 C 396.277344 346.246094 193.824219 320.328125 238.140625 307.058594 C 282.621094 293.742188 290.632812 292.058594 331.535156 278.742188 C 361.332031 269.039062 286.628906 259.816406 278.066406 255.0625 C 264.878906 247.746094 318.070312 241.808594 330.988281 239.414062 Z M 327.25 239.28125 " fill-opacity="1" fill-rule="nonzero"/></g><g clip-path="url(#id7)"><path stroke-linecap="butt" transform="matrix(0.24953, 0, 0, 0.249571, 63.89575, 108.347498)" fill="none" stroke-linejoin="miter" d="M 1055.401421 524.63608 C 988.494369 533.69852 811.755806 557.129388 789.683054 591.594833 C 773.46506 616.935231 1029.493333 640.13132 903.976079 669.72903 C 748.637127 706.354435 539.462577 726.075807 363.976369 783.205178 C 86.376286 873.579147 871.336583 1009.985303 989.684106 1051.071494 L 1849.691762 1053.967092 C 1332.030929 953.231577 520.69291 849.381337 698.292467 796.211892 C 876.54951 742.854625 908.656754 736.108664 1072.574336 682.751396 C 1191.98636 643.87212 892.610959 606.918026 858.296439 587.869685 C 805.447069 558.553709 1018.613501 534.762848 1070.382715 525.168244 Z M 1055.401421 524.63608 " stroke="rgb(0%, 0%, 0%)" stroke-width="0.807" stroke-opacity="1" stroke-miterlimit="4"/></g><g clip-path="url(#id8)"><path fill="rgb(19.999695%, 19.999695%, 19.999695%)" d="M 328.746094 239.445312 C 323.148438 240.1875 317.554688 240.980469 311.972656 241.84375 C 305.152344 242.898438 298.34375 244.042969 291.578125 245.417969 C 288.472656 246.050781 285.378906 246.730469 282.308594 247.511719 C 279.800781 248.152344 277.304688 248.851562 274.867188 249.742188 C 273.9375 250.085938 273.011719 250.457031 272.117188 250.894531 C 271.4375 251.226562 270.761719 251.597656 270.15625 252.066406 C 269.734375 252.390625 269.324219 252.777344 269.089844 253.289062 C 269 253.488281 268.949219 253.710938 268.949219 253.9375 C 268.949219 254.164062 269.007812 254.386719 269.105469 254.585938 C 269.207031 254.78125 269.347656 254.933594 269.496094 255.0625 C 269.703125 255.246094 269.929688 255.402344 270.160156 255.542969 C 270.824219 255.953125 271.53125 256.273438 272.238281 256.570312 C 273.214844 256.984375 274.207031 257.351562 275.203125 257.703125 C 276.425781 258.128906 277.65625 258.53125 278.890625 258.921875 C 281.832031 259.847656 284.792969 260.703125 287.753906 261.554688 C 290.992188 262.480469 294.234375 263.394531 297.46875 264.328125 C 300.546875 265.214844 303.617188 266.121094 306.667969 267.097656 C 309.136719 267.890625 311.597656 268.714844 313.976562 269.71875 C 314.835938 270.082031 315.683594 270.464844 316.484375 270.917969 C 317.035156 271.230469 317.570312 271.554688 317.972656 271.984375 C 318.105469 272.128906 318.21875 272.269531 318.273438 272.417969 C 318.316406 272.527344 318.335938 272.640625 318.308594 272.730469 C 318.289062 272.835938 318.207031 272.945312 318.105469 273.050781 C 317.957031 273.199219 317.761719 273.3125 317.546875 273.421875 C 317.316406 273.539062 317.0625 273.632812 316.796875 273.726562 C 316.378906 273.878906 315.953125 274.019531 315.523438 274.15625 C 314.21875 274.574219 312.902344 274.957031 311.582031 275.335938 C 307.417969 276.523438 303.234375 277.636719 299.042969 278.738281 C 286.910156 281.933594 274.746094 285.003906 262.578125 288.0625 C 249.917969 291.242188 237.246094 294.394531 224.582031 297.554688 C 219.761719 298.753906 214.945312 299.957031 210.128906 301.167969 C 207.230469 301.898438 204.328125 302.625 201.433594 303.398438 C 199.609375 303.886719 197.789062 304.449219 196.027344 305.183594 L 196.027344 305.1875 C 194.773438 305.703125 193.523438 306.320312 192.394531 307.164062 C 191.972656 307.480469 191.566406 307.839844 191.203125 308.257812 C 190.898438 308.605469 190.632812 309 190.429688 309.445312 C 190.25 309.84375 190.136719 310.277344 190.105469 310.722656 C 190.078125 311.171875 190.132812 311.613281 190.253906 312.03125 C 190.546875 313.023438 191.128906 313.855469 191.769531 314.546875 C 192.640625 315.5 193.644531 316.292969 194.667969 317 C 196.007812 317.929688 197.417969 318.738281 198.84375 319.484375 C 200.597656 320.40625 202.390625 321.238281 204.199219 322.023438 C 208.75 323.992188 213.414062 325.671875 218.097656 327.242188 C 223.875 329.179688 229.710938 330.933594 235.566406 332.597656 C 249.589844 336.582031 263.75 340.058594 277.941406 343.351562 C 293.496094 346.960938 309.101562 350.320312 324.734375 353.546875 C 339.570312 356.609375 354.433594 359.550781 369.3125 362.417969 C 381.21875 364.714844 393.132812 366.960938 405.042969 369.207031 C 409.203125 369.992188 413.363281 370.777344 417.515625 371.582031 C 419.023438 371.875 420.53125 372.167969 422.035156 372.472656 C 423.121094 372.691406 424.195312 372.910156 425.265625 373.144531 L 425.796875 370.707031 C 424.703125 370.472656 423.609375 370.253906 422.519531 370.042969 C 421.003906 369.742188 419.488281 369.457031 417.976562 369.171875 C 413.8125 368.386719 409.644531 367.621094 405.480469 366.855469 C 393.558594 364.667969 381.636719 362.484375 369.722656 360.25 C 354.839844 357.457031 339.972656 354.59375 325.128906 351.605469 C 309.492188 348.460938 293.882812 345.183594 278.332031 341.65625 C 264.136719 338.4375 249.988281 335.039062 235.976562 331.132812 C 230.128906 329.503906 224.304688 327.785156 218.546875 325.886719 C 213.875 324.347656 209.242188 322.703125 204.734375 320.777344 C 202.941406 320.011719 201.175781 319.203125 199.453125 318.3125 C 198.054688 317.585938 196.6875 316.8125 195.40625 315.929688 C 194.421875 315.253906 193.488281 314.53125 192.714844 313.683594 C 192.15625 313.058594 191.667969 312.398438 191.46875 311.679688 C 191.386719 311.390625 191.347656 311.089844 191.363281 310.804688 C 191.382812 310.519531 191.457031 310.230469 191.574219 309.957031 C 191.710938 309.648438 191.914062 309.351562 192.148438 309.074219 C 192.433594 308.742188 192.773438 308.4375 193.144531 308.15625 C 194.136719 307.394531 195.296875 306.824219 196.5 306.3125 C 198.1875 305.597656 199.953125 305.042969 201.742188 304.554688 C 204.621094 303.765625 207.515625 303.03125 210.410156 302.285156 C 215.21875 301.046875 220.03125 299.820312 224.84375 298.59375 C 237.492188 295.371094 250.148438 292.15625 262.792969 288.910156 C 274.949219 285.792969 287.101562 282.660156 299.222656 279.402344 C 303.40625 278.277344 307.59375 277.144531 311.753906 275.933594 C 313.078125 275.550781 314.398438 275.15625 315.710938 274.730469 C 316.144531 274.589844 316.574219 274.445312 317.003906 274.289062 C 317.269531 274.191406 317.542969 274.085938 317.816406 273.949219 C 318.058594 273.832031 318.304688 273.679688 318.519531 273.46875 C 318.679688 273.320312 318.816406 273.113281 318.878906 272.867188 C 318.929688 272.628906 318.898438 272.398438 318.816406 272.195312 C 318.710938 271.953125 318.558594 271.753906 318.394531 271.585938 C 317.914062 271.085938 317.332031 270.734375 316.765625 270.421875 C 315.933594 269.957031 315.0625 269.566406 314.195312 269.207031 C 311.78125 268.203125 309.304688 267.386719 306.824219 266.605469 C 303.765625 265.644531 300.683594 264.753906 297.597656 263.878906 C 294.359375 262.960938 291.113281 262.0625 287.871094 261.152344 C 284.90625 260.316406 281.945312 259.476562 279.003906 258.566406 C 277.769531 258.183594 276.542969 257.792969 275.324219 257.371094 C 274.328125 257.027344 273.339844 256.667969 272.371094 256.261719 C 271.667969 255.96875 270.972656 255.660156 270.332031 255.265625 C 270.109375 255.132812 269.898438 254.992188 269.710938 254.824219 C 269.578125 254.707031 269.460938 254.585938 269.394531 254.445312 C 269.3125 254.285156 269.265625 254.109375 269.265625 253.933594 C 269.261719 253.761719 269.304688 253.582031 269.378906 253.417969 C 269.566406 252.976562 269.945312 252.625 270.34375 252.304688 C 270.925781 251.851562 271.578125 251.488281 272.25 251.15625 C 273.128906 250.71875 274.042969 250.347656 274.96875 250.003906 C 277.382812 249.101562 279.871094 248.394531 282.371094 247.742188 C 285.433594 246.945312 288.519531 246.25 291.621094 245.605469 C 298.375 244.195312 305.175781 243.015625 311.988281 241.925781 C 317.566406 241.039062 323.15625 240.21875 328.75 239.445312 Z M 328.746094 239.445312 " fill-opacity="1" fill-rule="nonzero"/></g><g clip-path="url(#id9)"><path stroke-linecap="butt" transform="matrix(0.24953, 0, 0, 0.249571, 63.89575, 108.347498)" fill="none" stroke-linejoin="miter" d="M 1061.39707 525.293459 C 1038.964265 528.267317 1016.547115 531.444649 994.176929 534.903715 C 966.844287 539.129723 939.558608 543.715725 912.445128 549.225187 C 899.999852 551.760792 887.60154 554.48422 875.297155 557.614596 C 865.247008 560.181505 855.243825 562.983192 845.475458 566.551821 C 841.749702 567.929187 838.039602 569.416116 834.454736 571.169126 C 831.730864 572.499536 829.022647 573.986465 826.59621 575.864691 C 824.905531 577.163797 823.261816 578.713334 822.322549 580.76373 C 821.962498 581.561976 821.75899 582.454134 821.75899 583.361943 C 821.75899 584.269752 821.993806 585.161909 822.385167 585.960155 C 822.792183 586.742749 823.355742 587.353173 823.950611 587.869685 C 824.780296 588.605323 825.688253 589.231399 826.611864 589.794866 C 829.273118 591.438314 832.106571 592.721768 834.940024 593.911312 C 838.853632 595.570411 842.829858 597.041688 846.821739 598.450357 C 851.721577 600.156413 856.652724 601.768557 861.599525 603.333745 C 873.387314 607.043241 885.253375 610.471003 897.119436 613.883114 C 910.096962 617.59261 923.090143 621.25515 936.052014 624.99595 C 948.387709 628.548927 960.692094 632.180164 972.918207 636.093135 C 982.81181 639.270467 992.674103 642.573014 1002.207654 646.595548 C 1005.651629 648.051173 1009.048641 649.585057 1012.2578 651.400676 C 1014.465076 652.652826 1016.609733 653.951933 1018.22214 655.67364 C 1018.754391 656.252759 1019.208369 656.816227 1019.427531 657.410999 C 1019.59973 657.849251 1019.678002 658.303156 1019.568421 658.663149 C 1019.490149 659.08575 1019.161406 659.524003 1018.754391 659.946604 C 1018.159522 660.541375 1017.3768 660.99528 1016.515807 661.433532 C 1015.592195 661.903089 1014.574657 662.278734 1013.510155 662.654379 C 1011.835131 663.264803 1010.128797 663.82827 1008.40681 664.376086 C 1003.178229 666.050838 997.902684 667.584722 992.611485 669.102955 C 975.923859 673.861127 959.157959 678.321914 942.360751 682.735744 C 893.738079 695.538984 844.99017 707.841364 796.226608 720.096788 C 745.490586 732.83742 694.707601 745.468489 643.955925 758.130862 C 624.638354 762.93599 605.336436 767.75677 586.034519 772.608853 C 574.418928 775.535755 562.787684 778.447006 551.187748 781.546078 C 543.877127 783.502564 536.582161 785.756435 529.522011 788.698989 L 529.522011 788.71464 C 524.496938 790.780689 519.487519 793.253686 514.963387 796.634493 C 513.272708 797.902295 511.644647 799.342269 510.188785 801.01702 C 508.967739 802.410038 507.903237 803.990878 507.089207 805.775192 C 506.369103 807.371684 505.915124 809.109043 505.789889 810.893358 C 505.680308 812.693324 505.89947 814.461987 506.384757 816.136738 C 507.55884 820.112317 509.89135 823.446168 512.458678 826.216551 C 515.949616 830.03561 519.972806 833.212942 524.074268 836.045933 C 529.443739 839.771081 535.09499 843.011021 540.808858 846.00053 C 547.837699 849.694374 555.023084 853.028225 562.271087 856.174254 C 580.508503 864.062803 599.199898 870.793112 617.969565 877.085169 C 641.122473 884.848502 664.510198 891.876198 687.976195 898.5439 C 744.175614 914.50882 800.922938 928.438995 857.795498 941.633532 C 920.131455 956.095871 982.67092 969.55649 1045.319966 982.484945 C 1104.775507 994.756021 1164.340629 1006.541888 1223.96837 1018.03037 C 1271.683085 1027.233677 1319.42911 1036.233509 1367.15948 1045.233342 C 1383.831452 1048.37937 1400.503425 1051.525399 1417.144088 1054.749686 C 1423.1867 1055.923578 1429.229312 1057.097469 1435.256269 1058.318316 C 1439.608202 1059.194821 1443.913171 1060.071326 1448.202486 1061.010439 L 1450.331489 1051.243665 C 1445.948247 1050.304552 1441.565006 1049.428046 1437.197419 1048.582845 C 1431.123498 1047.37765 1425.049578 1046.235062 1418.991312 1045.092475 C 1402.303685 1041.946447 1385.600403 1038.878678 1368.912776 1035.810909 C 1321.135443 1027.045854 1273.35811 1018.296452 1225.612085 1009.343575 C 1165.968691 998.152479 1106.387914 986.67965 1046.901064 974.70596 C 984.236363 962.106194 921.681244 948.974265 859.360941 934.840615 C 802.472727 921.943464 745.772366 908.326326 689.61991 892.674444 C 666.185222 886.147609 642.844461 879.26078 619.769825 871.653966 C 601.047121 865.487124 582.480962 858.897681 564.415745 851.181303 C 557.23036 848.113534 550.154555 844.873595 543.25095 841.304965 C 537.646662 838.393715 532.16761 835.294643 527.032956 831.757317 C 523.088038 829.049542 519.346629 826.153943 516.247051 822.757485 C 514.008467 820.253184 512.051662 817.608015 511.253286 814.728069 C 510.924543 813.56983 510.767999 812.364635 510.830616 811.222047 C 510.908889 810.07946 511.206323 808.921221 511.675956 807.825589 C 512.223861 806.58909 513.037892 805.399547 513.977158 804.288263 C 515.119931 802.957853 516.481867 801.737007 517.969038 800.610071 C 521.945265 797.557954 526.594632 795.272779 531.416197 793.222383 C 538.178913 790.358088 545.254717 788.135521 552.424448 786.179035 C 563.961766 783.017355 575.561702 780.074801 587.161638 777.085292 C 606.432247 772.123645 625.71851 767.208954 645.004773 762.294263 C 695.693831 749.38146 746.414198 736.499961 797.087601 723.493246 C 845.804201 711.003044 894.505146 698.450234 943.080855 685.396564 C 959.846755 680.888822 976.628308 676.349776 993.300281 671.497693 C 998.607134 669.963808 1003.898333 668.382968 1009.158222 666.676913 C 1010.895865 666.113445 1012.617852 665.534326 1014.33984 664.90825 C 1015.404342 664.516953 1016.500152 664.094352 1017.595963 663.546537 C 1018.566537 663.07698 1019.552767 662.466557 1020.413761 661.621355 C 1021.055593 661.026583 1021.603498 660.197034 1021.853969 659.210965 C 1022.057476 658.2562 1021.932241 657.332739 1021.603498 656.518841 C 1021.180828 655.548425 1020.570305 654.750179 1019.912819 654.077148 C 1017.987323 652.073707 1015.654813 650.665037 1013.38492 649.412887 C 1010.050525 647.550313 1006.559586 645.985124 1003.084302 644.545151 C 993.409862 640.522617 983.48495 637.251374 973.544385 634.120998 C 961.286962 630.270634 948.935614 626.702005 936.568611 623.195984 C 923.591085 619.517791 910.58225 615.917858 897.589069 612.27097 C 885.707354 608.921467 873.841293 605.556312 862.053504 601.909423 C 857.106702 600.375539 852.19121 598.810351 847.307027 597.119947 C 843.315146 595.742582 839.354574 594.302609 835.472274 592.674813 C 832.654476 591.500922 829.867987 590.264423 827.30066 588.683583 C 826.408357 588.151419 825.563017 587.587951 824.811605 586.91492 C 824.279354 586.445364 823.809721 585.960155 823.543595 585.396687 C 823.214852 584.75496 823.026999 584.050626 823.026999 583.346291 C 823.011345 582.657608 823.183543 581.937621 823.480978 581.280242 C 824.23239 579.51158 825.750871 578.10291 827.347623 576.819456 C 829.680134 575.003838 832.294424 573.548212 834.986987 572.217802 C 838.509235 570.464792 842.172372 568.977863 845.882473 567.600497 C 855.556913 563.984912 865.528788 561.151922 875.547626 558.538057 C 887.820702 555.345073 900.187706 552.559038 912.617326 549.976478 C 939.683843 544.326148 966.938213 539.599279 994.239547 535.232404 C 1016.594079 531.679427 1038.995574 528.392532 1061.412724 525.293459 Z M 1061.39707 525.293459 " stroke="rgb(100%, 100%, 100%)" stroke-width="0.807" stroke-opacity="1" stroke-miterlimit="4"/></g></svg>